<svg fill="none" xmlns="http://www.w3.org/2000/svg" viewBox="0 0 100 100">
	<path
		d="M18.262 64.297C10.703 64.297 5 67.09 5 70.8v10.273c0 3.711 5.703 6.504 13.262 6.504 7.558 0 13.261-2.793 13.261-6.504V70.801c0-3.692-5.703-6.504-13.261-6.504ZM7.734 74.043c2.227 1.582 6.075 2.598 10.528 2.598s8.3-1.016 10.527-2.598v3.36c-1.504 1.6-5.41 3.007-10.527 3.007-5.117 0-9.004-1.406-10.528-3.008v-3.359Zm10.528-7.012c6.425 0 10.527 2.227 10.527 3.77v1.445c-1.504 1.602-5.41 3.008-10.527 3.008-5.117 0-9.004-1.406-10.528-3.008v-1.445c0-1.524 4.102-3.77 10.528-3.77Zm0 17.832c-6.426 0-10.528-2.226-10.528-3.77V79.18c2.227 1.582 6.075 2.597 10.528 2.597s8.3-1.015 10.527-2.597v1.914c0 1.523-4.102 3.77-10.527 3.77ZM50 54.023c-7.559 0-13.262 2.793-13.262 6.504v20.547c0 3.711 5.703 6.504 13.262 6.504s13.262-2.793 13.262-6.504V60.527c0-3.71-5.703-6.504-13.262-6.504Zm10.527 18.223c-1.504 1.602-5.41 3.008-10.527 3.008-5.117 0-9.004-1.406-10.527-3.008v-3.36c2.226 1.583 6.074 2.598 10.527 2.598 4.453 0 8.3-1.015 10.527-2.597v3.36Zm0-5.137c-1.504 1.602-5.41 3.008-10.527 3.008-5.117 0-9.004-1.406-10.527-3.008V63.75c2.226 1.582 6.074 2.598 10.527 2.598 4.453 0 8.3-1.016 10.527-2.598v3.36Zm-21.054 6.934c2.226 1.582 6.074 2.598 10.527 2.598 4.453 0 8.3-1.016 10.527-2.598v3.36c-1.504 1.6-5.41 3.007-10.527 3.007-5.117 0-9.004-1.406-10.527-3.008v-3.359ZM50 56.758c6.426 0 10.527 2.226 10.527 3.77v1.445C59.023 63.574 55.117 64.98 50 64.98c-5.117 0-9.004-1.407-10.527-3.008v-1.446c0-1.523 4.101-3.77 10.527-3.77Zm0 28.105c-6.426 0-10.527-2.226-10.527-3.77V79.18c2.226 1.582 6.074 2.597 10.527 2.597 4.453 0 8.3-1.015 10.527-2.597v1.914c0 1.523-4.101 3.77-10.527 3.77ZM81.738 43.75c-7.558 0-13.261 2.793-13.261 6.504v30.82c0 3.711 5.703 6.504 13.261 6.504 7.559 0 13.262-2.793 13.262-6.504v-30.82c0-3.711-5.703-6.504-13.262-6.504Zm10.528 28.496c-1.504 1.602-5.41 3.008-10.528 3.008-5.117 0-9.004-1.406-10.527-3.008v-3.36c2.227 1.583 6.074 2.598 10.527 2.598 4.453 0 8.301-1.015 10.528-2.597v3.36Zm0-5.137c-1.504 1.602-5.41 3.008-10.528 3.008-5.117 0-9.004-1.406-10.527-3.008V63.75c2.227 1.582 6.074 2.598 10.527 2.598 4.453 0 8.301-1.016 10.528-2.598v3.36Zm0-5.136c-1.504 1.601-5.41 3.008-10.528 3.008-5.117 0-9.004-1.407-10.527-3.008v-3.36c2.227 1.582 6.074 2.598 10.527 2.598 4.453 0 8.301-1.016 10.528-2.598v3.36Zm0-5.137c-1.504 1.602-5.41 3.008-10.528 3.008-5.117 0-9.004-1.407-10.527-3.008v-3.36c2.227 1.583 6.074 2.598 10.527 2.598 4.453 0 8.301-1.015 10.528-2.597v3.359ZM71.21 74.043c2.227 1.582 6.074 2.598 10.527 2.598 4.453 0 8.301-1.016 10.528-2.598v3.36c-1.504 1.6-5.41 3.007-10.528 3.007-5.117 0-9.004-1.406-10.527-3.008v-3.359Zm10.527-27.559c6.426 0 10.528 2.227 10.528 3.77v1.445c-1.504 1.602-5.41 3.008-10.528 3.008-5.117 0-9.004-1.406-10.527-3.008v-1.445c0-1.523 4.102-3.77 10.527-3.77Zm0 38.38c-6.425 0-10.527-2.227-10.527-3.77V79.18c2.227 1.582 6.074 2.597 10.527 2.597 4.453 0 8.301-1.015 10.528-2.597v1.914c0 1.523-4.102 3.77-10.528 3.77ZM18.262 55.293a5.051 5.051 0 0 0 5.039-5.04c0-.136 0-.273-.02-.39l22.637-8.36A5.057 5.057 0 0 0 50 43.575a5.051 5.051 0 0 0 5.04-5.039c0-.547-.08-1.054-.235-1.543L78.457 21.27a4.993 4.993 0 0 0 3.281 1.21 5.051 5.051 0 0 0 5.04-5.039 5.051 5.051 0 0 0-5.04-5.039 5.051 5.051 0 0 0-5.039 5.04 5 5 0 0 0 .235 1.542L53.28 34.707A4.993 4.993 0 0 0 50 33.497a5.051 5.051 0 0 0-5.04 5.038c0 .137 0 .274.02.39l-22.636 8.36a5.057 5.057 0 0 0-4.082-2.07 5.051 5.051 0 0 0-5.04 5.039 5.051 5.051 0 0 0 5.04 5.039Zm63.476-40.156a2.309 2.309 0 0 1 2.305 2.304 2.309 2.309 0 0 1-2.305 2.305 2.309 2.309 0 0 1-2.304-2.305 2.309 2.309 0 0 1 2.304-2.304ZM50 36.25a2.309 2.309 0 0 1 2.305 2.305A2.309 2.309 0 0 1 50 40.859a2.318 2.318 0 0 1-2.148-1.484v-.04a2.124 2.124 0 0 1-.137-.78A2.28 2.28 0 0 1 50 36.25Zm-31.738 11.7a2.309 2.309 0 0 1 2.304 2.304 2.309 2.309 0 0 1-2.304 2.305 2.309 2.309 0 0 1-2.305-2.305 2.309 2.309 0 0 1 2.305-2.305Z"/>
</svg>
