<svg fill="none" xmlns="http://www.w3.org/2000/svg" viewBox="0 0 100 100">
	<g clip-path="url(#a)">
		<path d="M70.944 52.95a1.566 1.566 0 0 0-2.2.25 24.108 24.108 0 0 1-6.203 5.502 1.566 1.566 0 1 0 1.64 2.667c1.79-1.1 3.46-2.419 4.96-3.919.725-.726 1.416-1.5 2.053-2.3a1.565 1.565 0 0 0-.25-2.2ZM75.47 36.743c-.865 0-1.566.701-1.566 1.566 0 3.28-.638 6.446-1.896 9.41a1.566 1.566 0 0 0 2.883 1.223 27.059 27.059 0 0 0 2.144-10.633c0-.865-.7-1.566-1.565-1.566Z"/>
		<path d="M85.908 34.238c-.88 0-1.752.084-2.61.246v-2.96h3.445c.865 0 1.566-.701 1.566-1.566v-9.185c0-.865-.7-1.566-1.566-1.566H13.257c-.865 0-1.566.7-1.566 1.566v9.185c0 .865.7 1.566 1.566 1.566H16.7v2.96a14.106 14.106 0 0 0-2.61-.246C6.322 34.238 0 40.56 0 48.33c0 7.77 6.321 14.092 14.092 14.092a14.03 14.03 0 0 0 9.54-3.728A33.252 33.252 0 0 0 44.26 71.109v13.728A33.378 33.378 0 0 0 24.874 95.73a1.566 1.566 0 0 0 1.177 2.599H73.95a1.567 1.567 0 0 0 1.177-2.599 33.376 33.376 0 0 0-19.385-10.894V71.109a33.253 33.253 0 0 0 20.627-12.415 14.03 14.03 0 0 0 9.54 3.728C93.678 62.422 100 56.1 100 48.33c0-7.77-6.322-14.092-14.092-14.092Zm-71.086-5.845v-6.055h70.355v6.055H14.822ZM85.908 44.05c2.36 0 4.28 1.92 4.28 4.28 0 2.36-1.92 4.28-4.28 4.28a4.255 4.255 0 0 1-4.256-3.9c.307-.942.575-1.915.8-2.903a4.265 4.265 0 0 1 3.456-1.757Zm-67.56 4.66a4.255 4.255 0 0 1-4.256 3.9c-2.36 0-4.28-1.92-4.28-4.28 0-2.36 1.92-4.28 4.28-4.28 1.375 0 2.648.653 3.455 1.758.225.987.494 1.96.8 2.902Zm-4.256 10.58c-6.044 0-10.96-4.917-10.96-10.96 0-6.044 4.916-10.96 10.96-10.96.884 0 1.757.107 2.61.316v.623c0 1.049.051 2.097.148 3.14a7.414 7.414 0 0 0-10.17 6.88c0 4.088 3.325 7.412 7.412 7.412a7.38 7.38 0 0 0 5.91-2.923 33.158 33.158 0 0 0 1.816 3.282 10.916 10.916 0 0 1-7.726 3.19ZM70.2 95.198H29.799a30.196 30.196 0 0 1 16.229-7.464 1.566 1.566 0 0 0 1.362-1.552V71.608h5.22v14.574c0 .786.582 1.45 1.362 1.552A30.195 30.195 0 0 1 70.2 95.198Zm4.716-39.83-.001.003C69.302 63.577 59.988 68.476 50 68.476c-9.987 0-19.302-4.9-24.916-13.105l-.002-.003a29.992 29.992 0 0 1-3.666-7.345 30.268 30.268 0 0 1-.882-3.193v-.001a30.653 30.653 0 0 1-.701-6.52v-6.785h60.334v6.785a30.64 30.64 0 0 1-.701 6.52v.001a30.257 30.257 0 0 1-.882 3.193 29.997 29.997 0 0 1-3.667 7.345Zm10.991 3.922c-2.921 0-5.68-1.151-7.726-3.19a33.138 33.138 0 0 0 1.816-3.282 7.38 7.38 0 0 0 5.91 2.923c4.087 0 7.411-3.324 7.411-7.411s-3.325-7.411-7.411-7.411c-.963 0-1.896.185-2.759.53.097-1.043.15-2.091.15-3.14v-.623a10.938 10.938 0 0 1 2.609-.316c6.043 0 10.96 4.916 10.96 10.96 0 6.044-4.917 10.96-10.96 10.96Z"/>
		<path d="M64.84 45.309a1.566 1.566 0 0 0-1.48-1.05h-8.923l-2.966-8.155a1.566 1.566 0 0 0-2.943 0l-2.966 8.155h-8.924a1.566 1.566 0 0 0-.974 2.792l7.542 5.992-2.233 8.19a1.565 1.565 0 0 0 2.472 1.648l6.554-5.098 6.555 5.098a1.565 1.565 0 0 0 2.471-1.648l-2.233-8.19 7.542-5.992a1.565 1.565 0 0 0 .505-1.742Zm-10.804 5.924a1.566 1.566 0 0 0-.536 1.638l1.269 4.654-3.808-2.962a1.563 1.563 0 0 0-1.923 0l-3.807 2.962 1.269-4.654a1.566 1.566 0 0 0-.537-1.638l-4.837-3.843h5.533c.659 0 1.247-.412 1.472-1.03L50 41.22l1.868 5.14c.225.618.813 1.03 1.472 1.03h5.533l-4.837 3.843ZM54.175 5.846h-2.61v-2.61a1.566 1.566 0 1 0-3.13 0v2.61h-2.61a1.566 1.566 0 1 0 0 3.131h2.61v2.61a1.566 1.566 0 1 0 3.13 0v-2.61h2.61a1.566 1.566 0 1 0 0-3.131ZM77.557 5.846h-2.61v-2.61a1.566 1.566 0 1 0-3.131 0v2.61h-2.61a1.566 1.566 0 1 0 0 3.131h2.61v2.61a1.566 1.566 0 1 0 3.132 0v-2.61h2.61a1.566 1.566 0 1 0 0-3.131ZM32.464 5.846h-2.61v-2.61a1.566 1.566 0 1 0-3.132 0v2.61h-2.61a1.566 1.566 0 1 0 0 3.131h2.61v2.61a1.566 1.566 0 1 0 3.132 0v-2.61h2.61a1.566 1.566 0 1 0 0-3.131Z"/>
	</g>
	<defs>
		<clipPath id="a">
			<path d="M0 0h100v100H0z"/>
		</clipPath>
	</defs>
</svg>
