<svg viewBox="0 0 24 24" xmlns="http://www.w3.org/2000/svg">
	<path fill-rule="evenodd" clip-rule="evenodd" d="M20.0307 3.96967C20.3236 4.26256 20.3236 4.73744 20.0307 5.03033L18.3912 6.66991C18.3912 6.67 18.3913 6.67008 18.3914 6.67016L17.3303 7.73131C17.3302 7.73123 17.3301 7.73115 17.33 7.73106L7.85192 17.2091C7.85202 17.2092 7.85213 17.2093 7.85223 17.2094L6.77451 18.2871C6.77441 18.287 6.7743 18.2869 6.7742 18.2869L5.03074 20.0303C4.73784 20.3232 4.26297 20.3232 3.97007 20.0303C3.67718 19.7374 3.67718 19.2626 3.97007 18.9697L5.60966 17.3301C3.6351 15.48 2.51846 13.2015 2.14401 12.3461C2.04705 12.1246 2.04705 11.8754 2.14401 11.6539C2.81602 10.1188 5.87852 4 12.0004 4C14.0901 4 15.8233 4.71293 17.2266 5.71314L18.9701 3.96967C19.263 3.67678 19.7378 3.67678 20.0307 3.96967ZM8.55644 19.2957C9.57483 19.7327 10.7208 20 12.0004 20C18.1223 20 21.1848 13.8812 21.8568 12.3461C21.9538 12.1246 21.9538 11.8754 21.8568 11.6539C21.577 11.0148 20.883 9.5814 19.7264 8.12574L18.6581 9.19408C19.5093 10.2937 20.0733 11.3702 20.3671 12C19.9914 12.8055 19.1735 14.3416 17.8783 15.7225C16.4384 17.2575 14.5112 18.5 12.0004 18.5C11.1783 18.5 10.4188 18.3668 9.71843 18.1337L8.55644 19.2957ZM12.0004 5.5C13.6164 5.5 14.9907 6.01472 16.1489 6.79085L13.5244 9.41538C13.2911 9.27755 13.0376 9.1704 12.7693 9.09947C12.5239 9.03457 12.2662 9 12.0003 9C10.3435 9 9.00035 10.3431 9.00035 12C9.00035 12.2658 9.03492 12.5236 9.09982 12.769C9.17075 13.0372 9.2779 13.2908 9.41573 13.524L6.67081 16.2689C6.48069 16.0923 6.29799 15.9096 6.12253 15.7225C4.82726 14.3416 4.00945 12.8055 3.63371 12C4.00945 11.1945 4.82726 9.65836 6.12253 8.27749C7.56236 6.7425 9.4896 5.5 12.0004 5.5Z" />
</svg>
