<svg viewBox="0 0 24 24" xmlns="http://www.w3.org/2000/svg">
	<path fill-rule="evenodd" clip-rule="evenodd" d="M17.878 8.27749C19.1733 9.65836 19.9911 11.1945 20.3669 12C19.9911 12.8055 19.1733 14.3416 17.878 15.7225C16.4382 17.2575 14.511 18.5 12.0002 18.5C9.48936 18.5 7.56212 17.2575 6.12229 15.7225C4.82702 14.3416 4.00921 12.8055 3.63346 12C4.00921 11.1945 4.82702 9.65836 6.12229 8.27749C7.56212 6.7425 9.48936 5.5 12.0002 5.5C14.511 5.5 16.4382 6.7425 17.878 8.27749ZM21.8566 11.6539C21.9535 11.8754 21.9535 12.1246 21.8566 12.3461C21.1845 13.8812 18.122 20 12.0002 20C5.87827 20 2.81578 13.8812 2.14376 12.3461C2.04681 12.1246 2.04681 11.8754 2.14376 11.6539C2.81578 10.1188 5.87828 4 12.0002 4C18.122 4 21.1845 10.1188 21.8566 11.6539ZM12.0001 15C13.657 15 15.0001 13.6569 15.0001 12C15.0001 10.3431 13.657 9 12.0001 9C10.3433 9 9.00011 10.3431 9.00011 12C9.00011 13.6569 10.3433 15 12.0001 15Z" />
</svg>
