<svg fill="none" xmlns="http://www.w3.org/2000/svg" viewBox="0 0 100 100">
	<g clip-path="url(#a)">
		<path d="M50 73c12.684 0 23-10.319 23-23S62.681 27 50 27 27 37.319 27 50c0 12.684 10.319 23 23 23Zm-11.375-5.666v-3.272c0-4.984 3.231-9.328 8.04-10.815.435-.131.744-.516.788-.966a1.13 1.13 0 0 0-.587-1.1c-2.191-1.175-3.553-3.425-3.553-5.868 0-3.688 3-6.688 6.687-6.688 3.688 0 6.688 3 6.688 6.688 0 2.443-1.363 4.693-3.554 5.868-.4.216-.63.65-.587 1.1.044.453.353.835.787.966 4.81 1.487 8.041 5.831 8.041 10.816v3.271A20.611 20.611 0 0 1 50 70.75c-4.2 0-8.106-1.263-11.375-3.416ZM50 29.25c11.44 0 20.75 9.31 20.75 20.75 0 6.225-2.769 11.803-7.122 15.61v-1.547c0-5.254-2.987-9.913-7.619-12.172a8.865 8.865 0 0 0 2.932-6.578c0-4.929-4.01-8.938-8.938-8.938-4.928 0-8.937 4.01-8.937 8.938a8.876 8.876 0 0 0 2.93 6.578c-4.63 2.259-7.618 6.918-7.618 12.172v1.55c-4.36-3.81-7.128-9.388-7.128-15.613 0-11.44 9.31-20.75 20.75-20.75Zm42.188 27.438c-2.82 0-5.172 2.021-5.7 4.687H79.25v-22.75h7.237a5.82 5.82 0 0 0 5.7 4.688A5.82 5.82 0 0 0 98 37.5a5.82 5.82 0 0 0-5.813-5.813 5.82 5.82 0 0 0-5.7 4.688H79.25v-14.5c0-.622-.503-1.125-1.125-1.125h-14.5v-7.24c2.666-.526 4.688-2.879 4.688-5.697A5.822 5.822 0 0 0 62.5 2a5.82 5.82 0 0 0-5.813 5.813c0 2.818 2.022 5.171 4.688 5.696v7.241h-22.75v-7.24c2.669-.526 4.688-2.879 4.688-5.697A5.82 5.82 0 0 0 37.5 2a5.817 5.817 0 0 0-5.813 5.813c0 2.818 2.02 5.171 4.688 5.696v7.241h-14.5c-.622 0-1.125.503-1.125 1.125v14.5h-7.24c-.526-2.669-2.879-4.688-5.697-4.688A5.82 5.82 0 0 0 2 37.5a5.818 5.818 0 0 0 5.813 5.813c2.818 0 5.171-2.02 5.696-4.688h7.241v22.75h-7.24c-.526-2.666-2.879-4.688-5.697-4.688A5.822 5.822 0 0 0 2 62.5a5.82 5.82 0 0 0 5.813 5.813c2.818 0 5.171-2.022 5.696-4.688h7.241v14.5c0 .622.503 1.125 1.125 1.125h14.5v7.237a5.82 5.82 0 0 0-4.688 5.7A5.82 5.82 0 0 0 37.5 98a5.82 5.82 0 0 0 5.813-5.813 5.82 5.82 0 0 0-4.688-5.7V79.25h22.75v7.237c-2.666.529-4.688 2.882-4.688 5.7A5.822 5.822 0 0 0 62.5 98a5.822 5.822 0 0 0 5.813-5.813c0-2.818-2.022-5.171-4.688-5.7V79.25h14.5c.622 0 1.125-.503 1.125-1.125v-14.5h7.237c.529 2.666 2.882 4.688 5.7 4.688A5.822 5.822 0 0 0 98 62.5a5.822 5.822 0 0 0-5.813-5.813Zm0-22.75c1.965 0 3.562 1.6 3.562 3.562a3.567 3.567 0 0 1-3.563 3.563 3.567 3.567 0 0 1-3.562-3.563 3.567 3.567 0 0 1 3.563-3.563ZM58.938 7.811A3.567 3.567 0 0 1 62.5 4.25c1.966 0 3.563 1.6 3.563 3.563a3.567 3.567 0 0 1-3.563 3.562 3.567 3.567 0 0 1-3.563-3.563Zm-25 0c0-1.962 1.6-3.562 3.562-3.562 1.962 0 3.563 1.6 3.563 3.563 0 1.962-1.6 3.562-3.563 3.562a3.569 3.569 0 0 1-3.563-3.563ZM7.811 41.063A3.569 3.569 0 0 1 4.25 37.5c0-1.962 1.6-3.563 3.563-3.563 1.962 0 3.562 1.6 3.562 3.563 0 1.962-1.6 3.563-3.563 3.563Zm0 25A3.567 3.567 0 0 1 4.25 62.5c0-1.966 1.6-3.563 3.563-3.563a3.567 3.567 0 0 1 3.562 3.563c0 1.966-1.6 3.563-3.563 3.563Zm33.25 26.126c0 1.965-1.6 3.562-3.562 3.562a3.567 3.567 0 0 1-3.563-3.563c0-1.965 1.6-3.562 3.563-3.562a3.567 3.567 0 0 1 3.563 3.563Zm25 0A3.565 3.565 0 0 1 62.5 95.75a3.565 3.565 0 0 1-3.563-3.563 3.565 3.565 0 0 1 3.563-3.562 3.565 3.565 0 0 1 3.563 3.563ZM77 77H23V23h54v54Zm15.188-10.938a3.565 3.565 0 0 1-3.563-3.562 3.565 3.565 0 0 1 3.563-3.563A3.565 3.565 0 0 1 95.75 62.5a3.565 3.565 0 0 1-3.563 3.563Z" fill="#000"/>
	</g>
	<defs>
		<clipPath id="a">
			<path d="M0 0h100v100H0z"/>
		</clipPath>
	</defs>
</svg>
