<?xml version="1.0" encoding="UTF-8"?><!DOCTYPE svg PUBLIC "-//W3C//DTD SVG 1.1//EN" "http://www.w3.org/Graphics/SVG/1.1/DTD/svg11.dtd"><svg xmlns="http://www.w3.org/2000/svg" xmlns:xlink="http://www.w3.org/1999/xlink"><defs>
		<clipPath id="a">
			<path d="M0 0h100v100H0z"/>
		</clipPath>
	
		<clipPath id="a">
			<path d="M0 0h100v100H0z"/>
		</clipPath>
	</defs><symbol id="analytics" viewBox="0 0 100 100">
	<path d="M18.262 64.297C10.703 64.297 5 67.09 5 70.8v10.273c0 3.711 5.703 6.504 13.262 6.504 7.558 0 13.261-2.793 13.261-6.504V70.801c0-3.692-5.703-6.504-13.261-6.504ZM7.734 74.043c2.227 1.582 6.075 2.598 10.528 2.598s8.3-1.016 10.527-2.598v3.36c-1.504 1.6-5.41 3.007-10.527 3.007-5.117 0-9.004-1.406-10.528-3.008v-3.359Zm10.528-7.012c6.425 0 10.527 2.227 10.527 3.77v1.445c-1.504 1.602-5.41 3.008-10.527 3.008-5.117 0-9.004-1.406-10.528-3.008v-1.445c0-1.524 4.102-3.77 10.528-3.77Zm0 17.832c-6.426 0-10.528-2.226-10.528-3.77V79.18c2.227 1.582 6.075 2.597 10.528 2.597s8.3-1.015 10.527-2.597v1.914c0 1.523-4.102 3.77-10.527 3.77ZM50 54.023c-7.559 0-13.262 2.793-13.262 6.504v20.547c0 3.711 5.703 6.504 13.262 6.504s13.262-2.793 13.262-6.504V60.527c0-3.71-5.703-6.504-13.262-6.504Zm10.527 18.223c-1.504 1.602-5.41 3.008-10.527 3.008-5.117 0-9.004-1.406-10.527-3.008v-3.36c2.226 1.583 6.074 2.598 10.527 2.598 4.453 0 8.3-1.015 10.527-2.597v3.36Zm0-5.137c-1.504 1.602-5.41 3.008-10.527 3.008-5.117 0-9.004-1.406-10.527-3.008V63.75c2.226 1.582 6.074 2.598 10.527 2.598 4.453 0 8.3-1.016 10.527-2.598v3.36Zm-21.054 6.934c2.226 1.582 6.074 2.598 10.527 2.598 4.453 0 8.3-1.016 10.527-2.598v3.36c-1.504 1.6-5.41 3.007-10.527 3.007-5.117 0-9.004-1.406-10.527-3.008v-3.359ZM50 56.758c6.426 0 10.527 2.226 10.527 3.77v1.445C59.023 63.574 55.117 64.98 50 64.98c-5.117 0-9.004-1.407-10.527-3.008v-1.446c0-1.523 4.101-3.77 10.527-3.77Zm0 28.105c-6.426 0-10.527-2.226-10.527-3.77V79.18c2.226 1.582 6.074 2.597 10.527 2.597 4.453 0 8.3-1.015 10.527-2.597v1.914c0 1.523-4.101 3.77-10.527 3.77ZM81.738 43.75c-7.558 0-13.261 2.793-13.261 6.504v30.82c0 3.711 5.703 6.504 13.261 6.504 7.559 0 13.262-2.793 13.262-6.504v-30.82c0-3.711-5.703-6.504-13.262-6.504Zm10.528 28.496c-1.504 1.602-5.41 3.008-10.528 3.008-5.117 0-9.004-1.406-10.527-3.008v-3.36c2.227 1.583 6.074 2.598 10.527 2.598 4.453 0 8.301-1.015 10.528-2.597v3.36Zm0-5.137c-1.504 1.602-5.41 3.008-10.528 3.008-5.117 0-9.004-1.406-10.527-3.008V63.75c2.227 1.582 6.074 2.598 10.527 2.598 4.453 0 8.301-1.016 10.528-2.598v3.36Zm0-5.136c-1.504 1.601-5.41 3.008-10.528 3.008-5.117 0-9.004-1.407-10.527-3.008v-3.36c2.227 1.582 6.074 2.598 10.527 2.598 4.453 0 8.301-1.016 10.528-2.598v3.36Zm0-5.137c-1.504 1.602-5.41 3.008-10.528 3.008-5.117 0-9.004-1.407-10.527-3.008v-3.36c2.227 1.583 6.074 2.598 10.527 2.598 4.453 0 8.301-1.015 10.528-2.597v3.359ZM71.21 74.043c2.227 1.582 6.074 2.598 10.527 2.598 4.453 0 8.301-1.016 10.528-2.598v3.36c-1.504 1.6-5.41 3.007-10.528 3.007-5.117 0-9.004-1.406-10.527-3.008v-3.359Zm10.527-27.559c6.426 0 10.528 2.227 10.528 3.77v1.445c-1.504 1.602-5.41 3.008-10.528 3.008-5.117 0-9.004-1.406-10.527-3.008v-1.445c0-1.523 4.102-3.77 10.527-3.77Zm0 38.38c-6.425 0-10.527-2.227-10.527-3.77V79.18c2.227 1.582 6.074 2.597 10.527 2.597 4.453 0 8.301-1.015 10.528-2.597v1.914c0 1.523-4.102 3.77-10.528 3.77ZM18.262 55.293a5.051 5.051 0 0 0 5.039-5.04c0-.136 0-.273-.02-.39l22.637-8.36A5.057 5.057 0 0 0 50 43.575a5.051 5.051 0 0 0 5.04-5.039c0-.547-.08-1.054-.235-1.543L78.457 21.27a4.993 4.993 0 0 0 3.281 1.21 5.051 5.051 0 0 0 5.04-5.039 5.051 5.051 0 0 0-5.04-5.039 5.051 5.051 0 0 0-5.039 5.04 5 5 0 0 0 .235 1.542L53.28 34.707A4.993 4.993 0 0 0 50 33.497a5.051 5.051 0 0 0-5.04 5.038c0 .137 0 .274.02.39l-22.636 8.36a5.057 5.057 0 0 0-4.082-2.07 5.051 5.051 0 0 0-5.04 5.039 5.051 5.051 0 0 0 5.04 5.039Zm63.476-40.156a2.309 2.309 0 0 1 2.305 2.304 2.309 2.309 0 0 1-2.305 2.305 2.309 2.309 0 0 1-2.304-2.305 2.309 2.309 0 0 1 2.304-2.304ZM50 36.25a2.309 2.309 0 0 1 2.305 2.305A2.309 2.309 0 0 1 50 40.859a2.318 2.318 0 0 1-2.148-1.484v-.04a2.124 2.124 0 0 1-.137-.78A2.28 2.28 0 0 1 50 36.25Zm-31.738 11.7a2.309 2.309 0 0 1 2.304 2.304 2.309 2.309 0 0 1-2.304 2.305 2.309 2.309 0 0 1-2.305-2.305 2.309 2.309 0 0 1 2.305-2.305Z"/>
</symbol><symbol id="competition" viewBox="0 0 100 100">
	<g clip-path="url(#a)">
		<path d="M70.944 52.95a1.566 1.566 0 0 0-2.2.25 24.108 24.108 0 0 1-6.203 5.502 1.566 1.566 0 1 0 1.64 2.667c1.79-1.1 3.46-2.419 4.96-3.919.725-.726 1.416-1.5 2.053-2.3a1.565 1.565 0 0 0-.25-2.2ZM75.47 36.743c-.865 0-1.566.701-1.566 1.566 0 3.28-.638 6.446-1.896 9.41a1.566 1.566 0 0 0 2.883 1.223 27.059 27.059 0 0 0 2.144-10.633c0-.865-.7-1.566-1.565-1.566Z"/>
		<path d="M85.908 34.238c-.88 0-1.752.084-2.61.246v-2.96h3.445c.865 0 1.566-.701 1.566-1.566v-9.185c0-.865-.7-1.566-1.566-1.566H13.257c-.865 0-1.566.7-1.566 1.566v9.185c0 .865.7 1.566 1.566 1.566H16.7v2.96a14.106 14.106 0 0 0-2.61-.246C6.322 34.238 0 40.56 0 48.33c0 7.77 6.321 14.092 14.092 14.092a14.03 14.03 0 0 0 9.54-3.728A33.252 33.252 0 0 0 44.26 71.109v13.728A33.378 33.378 0 0 0 24.874 95.73a1.566 1.566 0 0 0 1.177 2.599H73.95a1.567 1.567 0 0 0 1.177-2.599 33.376 33.376 0 0 0-19.385-10.894V71.109a33.253 33.253 0 0 0 20.627-12.415 14.03 14.03 0 0 0 9.54 3.728C93.678 62.422 100 56.1 100 48.33c0-7.77-6.322-14.092-14.092-14.092Zm-71.086-5.845v-6.055h70.355v6.055H14.822ZM85.908 44.05c2.36 0 4.28 1.92 4.28 4.28 0 2.36-1.92 4.28-4.28 4.28a4.255 4.255 0 0 1-4.256-3.9c.307-.942.575-1.915.8-2.903a4.265 4.265 0 0 1 3.456-1.757Zm-67.56 4.66a4.255 4.255 0 0 1-4.256 3.9c-2.36 0-4.28-1.92-4.28-4.28 0-2.36 1.92-4.28 4.28-4.28 1.375 0 2.648.653 3.455 1.758.225.987.494 1.96.8 2.902Zm-4.256 10.58c-6.044 0-10.96-4.917-10.96-10.96 0-6.044 4.916-10.96 10.96-10.96.884 0 1.757.107 2.61.316v.623c0 1.049.051 2.097.148 3.14a7.414 7.414 0 0 0-10.17 6.88c0 4.088 3.325 7.412 7.412 7.412a7.38 7.38 0 0 0 5.91-2.923 33.158 33.158 0 0 0 1.816 3.282 10.916 10.916 0 0 1-7.726 3.19ZM70.2 95.198H29.799a30.196 30.196 0 0 1 16.229-7.464 1.566 1.566 0 0 0 1.362-1.552V71.608h5.22v14.574c0 .786.582 1.45 1.362 1.552A30.195 30.195 0 0 1 70.2 95.198Zm4.716-39.83-.001.003C69.302 63.577 59.988 68.476 50 68.476c-9.987 0-19.302-4.9-24.916-13.105l-.002-.003a29.992 29.992 0 0 1-3.666-7.345 30.268 30.268 0 0 1-.882-3.193v-.001a30.653 30.653 0 0 1-.701-6.52v-6.785h60.334v6.785a30.64 30.64 0 0 1-.701 6.52v.001a30.257 30.257 0 0 1-.882 3.193 29.997 29.997 0 0 1-3.667 7.345Zm10.991 3.922c-2.921 0-5.68-1.151-7.726-3.19a33.138 33.138 0 0 0 1.816-3.282 7.38 7.38 0 0 0 5.91 2.923c4.087 0 7.411-3.324 7.411-7.411s-3.325-7.411-7.411-7.411c-.963 0-1.896.185-2.759.53.097-1.043.15-2.091.15-3.14v-.623a10.938 10.938 0 0 1 2.609-.316c6.043 0 10.96 4.916 10.96 10.96 0 6.044-4.917 10.96-10.96 10.96Z"/>
		<path d="M64.84 45.309a1.566 1.566 0 0 0-1.48-1.05h-8.923l-2.966-8.155a1.566 1.566 0 0 0-2.943 0l-2.966 8.155h-8.924a1.566 1.566 0 0 0-.974 2.792l7.542 5.992-2.233 8.19a1.565 1.565 0 0 0 2.472 1.648l6.554-5.098 6.555 5.098a1.565 1.565 0 0 0 2.471-1.648l-2.233-8.19 7.542-5.992a1.565 1.565 0 0 0 .505-1.742Zm-10.804 5.924a1.566 1.566 0 0 0-.536 1.638l1.269 4.654-3.808-2.962a1.563 1.563 0 0 0-1.923 0l-3.807 2.962 1.269-4.654a1.566 1.566 0 0 0-.537-1.638l-4.837-3.843h5.533c.659 0 1.247-.412 1.472-1.03L50 41.22l1.868 5.14c.225.618.813 1.03 1.472 1.03h5.533l-4.837 3.843ZM54.175 5.846h-2.61v-2.61a1.566 1.566 0 1 0-3.13 0v2.61h-2.61a1.566 1.566 0 1 0 0 3.131h2.61v2.61a1.566 1.566 0 1 0 3.13 0v-2.61h2.61a1.566 1.566 0 1 0 0-3.131ZM77.557 5.846h-2.61v-2.61a1.566 1.566 0 1 0-3.131 0v2.61h-2.61a1.566 1.566 0 1 0 0 3.131h2.61v2.61a1.566 1.566 0 1 0 3.132 0v-2.61h2.61a1.566 1.566 0 1 0 0-3.131ZM32.464 5.846h-2.61v-2.61a1.566 1.566 0 1 0-3.132 0v2.61h-2.61a1.566 1.566 0 1 0 0 3.131h2.61v2.61a1.566 1.566 0 1 0 3.132 0v-2.61h2.61a1.566 1.566 0 1 0 0-3.131Z"/>
	</g>
	
</symbol><symbol id="eye-off" viewBox="0 0 24 24">
	<path fill-rule="evenodd" clip-rule="evenodd" d="M20.0307 3.96967C20.3236 4.26256 20.3236 4.73744 20.0307 5.03033L18.3912 6.66991C18.3912 6.67 18.3913 6.67008 18.3914 6.67016L17.3303 7.73131C17.3302 7.73123 17.3301 7.73115 17.33 7.73106L7.85192 17.2091C7.85202 17.2092 7.85213 17.2093 7.85223 17.2094L6.77451 18.2871C6.77441 18.287 6.7743 18.2869 6.7742 18.2869L5.03074 20.0303C4.73784 20.3232 4.26297 20.3232 3.97007 20.0303C3.67718 19.7374 3.67718 19.2626 3.97007 18.9697L5.60966 17.3301C3.6351 15.48 2.51846 13.2015 2.14401 12.3461C2.04705 12.1246 2.04705 11.8754 2.14401 11.6539C2.81602 10.1188 5.87852 4 12.0004 4C14.0901 4 15.8233 4.71293 17.2266 5.71314L18.9701 3.96967C19.263 3.67678 19.7378 3.67678 20.0307 3.96967ZM8.55644 19.2957C9.57483 19.7327 10.7208 20 12.0004 20C18.1223 20 21.1848 13.8812 21.8568 12.3461C21.9538 12.1246 21.9538 11.8754 21.8568 11.6539C21.577 11.0148 20.883 9.5814 19.7264 8.12574L18.6581 9.19408C19.5093 10.2937 20.0733 11.3702 20.3671 12C19.9914 12.8055 19.1735 14.3416 17.8783 15.7225C16.4384 17.2575 14.5112 18.5 12.0004 18.5C11.1783 18.5 10.4188 18.3668 9.71843 18.1337L8.55644 19.2957ZM12.0004 5.5C13.6164 5.5 14.9907 6.01472 16.1489 6.79085L13.5244 9.41538C13.2911 9.27755 13.0376 9.1704 12.7693 9.09947C12.5239 9.03457 12.2662 9 12.0003 9C10.3435 9 9.00035 10.3431 9.00035 12C9.00035 12.2658 9.03492 12.5236 9.09982 12.769C9.17075 13.0372 9.2779 13.2908 9.41573 13.524L6.67081 16.2689C6.48069 16.0923 6.29799 15.9096 6.12253 15.7225C4.82726 14.3416 4.00945 12.8055 3.63371 12C4.00945 11.1945 4.82726 9.65836 6.12253 8.27749C7.56236 6.7425 9.4896 5.5 12.0004 5.5Z"/>
</symbol><symbol id="eye" viewBox="0 0 24 24">
	<path fill-rule="evenodd" clip-rule="evenodd" d="M17.878 8.27749C19.1733 9.65836 19.9911 11.1945 20.3669 12C19.9911 12.8055 19.1733 14.3416 17.878 15.7225C16.4382 17.2575 14.511 18.5 12.0002 18.5C9.48936 18.5 7.56212 17.2575 6.12229 15.7225C4.82702 14.3416 4.00921 12.8055 3.63346 12C4.00921 11.1945 4.82702 9.65836 6.12229 8.27749C7.56212 6.7425 9.48936 5.5 12.0002 5.5C14.511 5.5 16.4382 6.7425 17.878 8.27749ZM21.8566 11.6539C21.9535 11.8754 21.9535 12.1246 21.8566 12.3461C21.1845 13.8812 18.122 20 12.0002 20C5.87827 20 2.81578 13.8812 2.14376 12.3461C2.04681 12.1246 2.04681 11.8754 2.14376 11.6539C2.81578 10.1188 5.87828 4 12.0002 4C18.122 4 21.1845 10.1188 21.8566 11.6539ZM12.0001 15C13.657 15 15.0001 13.6569 15.0001 12C15.0001 10.3431 13.657 9 12.0001 9C10.3433 9 9.00011 10.3431 9.00011 12C9.00011 13.6569 10.3433 15 12.0001 15Z"/>
</symbol><symbol id="prediction" viewBox="0 0 100 100">
	<g clip-path="url(#a)">
		<path d="M50 73c12.684 0 23-10.319 23-23S62.681 27 50 27 27 37.319 27 50c0 12.684 10.319 23 23 23Zm-11.375-5.666v-3.272c0-4.984 3.231-9.328 8.04-10.815.435-.131.744-.516.788-.966a1.13 1.13 0 0 0-.587-1.1c-2.191-1.175-3.553-3.425-3.553-5.868 0-3.688 3-6.688 6.687-6.688 3.688 0 6.688 3 6.688 6.688 0 2.443-1.363 4.693-3.554 5.868-.4.216-.63.65-.587 1.1.044.453.353.835.787.966 4.81 1.487 8.041 5.831 8.041 10.816v3.271A20.611 20.611 0 0 1 50 70.75c-4.2 0-8.106-1.263-11.375-3.416ZM50 29.25c11.44 0 20.75 9.31 20.75 20.75 0 6.225-2.769 11.803-7.122 15.61v-1.547c0-5.254-2.987-9.913-7.619-12.172a8.865 8.865 0 0 0 2.932-6.578c0-4.929-4.01-8.938-8.938-8.938-4.928 0-8.937 4.01-8.937 8.938a8.876 8.876 0 0 0 2.93 6.578c-4.63 2.259-7.618 6.918-7.618 12.172v1.55c-4.36-3.81-7.128-9.388-7.128-15.613 0-11.44 9.31-20.75 20.75-20.75Zm42.188 27.438c-2.82 0-5.172 2.021-5.7 4.687H79.25v-22.75h7.237a5.82 5.82 0 0 0 5.7 4.688A5.82 5.82 0 0 0 98 37.5a5.82 5.82 0 0 0-5.813-5.813 5.82 5.82 0 0 0-5.7 4.688H79.25v-14.5c0-.622-.503-1.125-1.125-1.125h-14.5v-7.24c2.666-.526 4.688-2.879 4.688-5.697A5.822 5.822 0 0 0 62.5 2a5.82 5.82 0 0 0-5.813 5.813c0 2.818 2.022 5.171 4.688 5.696v7.241h-22.75v-7.24c2.669-.526 4.688-2.879 4.688-5.697A5.82 5.82 0 0 0 37.5 2a5.817 5.817 0 0 0-5.813 5.813c0 2.818 2.02 5.171 4.688 5.696v7.241h-14.5c-.622 0-1.125.503-1.125 1.125v14.5h-7.24c-.526-2.669-2.879-4.688-5.697-4.688A5.82 5.82 0 0 0 2 37.5a5.818 5.818 0 0 0 5.813 5.813c2.818 0 5.171-2.02 5.696-4.688h7.241v22.75h-7.24c-.526-2.666-2.879-4.688-5.697-4.688A5.822 5.822 0 0 0 2 62.5a5.82 5.82 0 0 0 5.813 5.813c2.818 0 5.171-2.022 5.696-4.688h7.241v14.5c0 .622.503 1.125 1.125 1.125h14.5v7.237a5.82 5.82 0 0 0-4.688 5.7A5.82 5.82 0 0 0 37.5 98a5.82 5.82 0 0 0 5.813-5.813 5.82 5.82 0 0 0-4.688-5.7V79.25h22.75v7.237c-2.666.529-4.688 2.882-4.688 5.7A5.822 5.822 0 0 0 62.5 98a5.822 5.822 0 0 0 5.813-5.813c0-2.818-2.022-5.171-4.688-5.7V79.25h14.5c.622 0 1.125-.503 1.125-1.125v-14.5h7.237c.529 2.666 2.882 4.688 5.7 4.688A5.822 5.822 0 0 0 98 62.5a5.822 5.822 0 0 0-5.813-5.813Zm0-22.75c1.965 0 3.562 1.6 3.562 3.562a3.567 3.567 0 0 1-3.563 3.563 3.567 3.567 0 0 1-3.562-3.563 3.567 3.567 0 0 1 3.563-3.563ZM58.938 7.811A3.567 3.567 0 0 1 62.5 4.25c1.966 0 3.563 1.6 3.563 3.563a3.567 3.567 0 0 1-3.563 3.562 3.567 3.567 0 0 1-3.563-3.563Zm-25 0c0-1.962 1.6-3.562 3.562-3.562 1.962 0 3.563 1.6 3.563 3.563 0 1.962-1.6 3.562-3.563 3.562a3.569 3.569 0 0 1-3.563-3.563ZM7.811 41.063A3.569 3.569 0 0 1 4.25 37.5c0-1.962 1.6-3.563 3.563-3.563 1.962 0 3.562 1.6 3.562 3.563 0 1.962-1.6 3.563-3.563 3.563Zm0 25A3.567 3.567 0 0 1 4.25 62.5c0-1.966 1.6-3.563 3.563-3.563a3.567 3.567 0 0 1 3.562 3.563c0 1.966-1.6 3.563-3.563 3.563Zm33.25 26.126c0 1.965-1.6 3.562-3.562 3.562a3.567 3.567 0 0 1-3.563-3.563c0-1.965 1.6-3.562 3.563-3.562a3.567 3.567 0 0 1 3.563 3.563Zm25 0A3.565 3.565 0 0 1 62.5 95.75a3.565 3.565 0 0 1-3.563-3.563 3.565 3.565 0 0 1 3.563-3.562 3.565 3.565 0 0 1 3.563 3.563ZM77 77H23V23h54v54Zm15.188-10.938a3.565 3.565 0 0 1-3.563-3.562 3.565 3.565 0 0 1 3.563-3.563A3.565 3.565 0 0 1 95.75 62.5a3.565 3.565 0 0 1-3.563 3.563Z" fill="#000"/>
	</g>
	
</symbol></svg>